<?xml version="1.0" encoding="UTF-8" standalone="no"?>
<svg
   width="206.67865"
   height="236.69312"
   viewBox="0 0 206.67865 236.69312"
   fill="none"
   version="1.1"
   id="svg3"
   xmlns="http://www.w3.org/2000/svg"
   xmlns:svg="http://www.w3.org/2000/svg">
  <defs
     id="defs3" />
  <path
     fill-rule="evenodd"
     clip-rule="evenodd"
     d="m 197.18708,67.816217 c 0.997,0.576 2.084,0.849 3.157,0.849 2.187,0 4.313,-1.135 5.485,-3.165 1.747,-3.026 0.71,-6.895 -2.316,-8.642 L 106.50208,0.84825 c -1.957,-1.131 -4.369,-1.131 -6.326,0 L 3.1645796,56.858217 c -3.02599905,1.747 -4.06300905,5.616 -2.31601005,8.642 1.74800005,3.026 5.61700005,4.063 8.64200005,2.316 l 93.8485104,-54.183 z m 0.001,29.2233 c 0.996,0.576 2.084,0.849 3.157,0.849 2.187,0 4.313,-1.135 5.485,-3.165 1.747,-3.026 0.71,-6.895 -2.316,-8.642 l -97.011,-56.01 c -1.957,-1.13 -4.369,-1.131 -6.326,0 l -71.7054,41.399 c -3.026,1.747 -4.064,5.616 -2.316,8.642 1.747,3.026 5.618,4.063 8.642,2.316 l 68.5424,-39.572 z m 3.157,30.071603 c -1.073,0 -2.161,-0.273 -3.157,-0.849 l -93.848,-54.184103 -43.2343,24.961 c -3.025,1.747 -6.896,0.711 -8.643,-2.315 -1.747,-3.027 -0.71,-6.896 2.317,-8.643 l 46.3973,-26.787 c 1.957,-1.131 4.369,-1.131 6.326,0 l 97.011,56.010103 c 3.026,1.747 4.063,5.616 2.316,8.642 -1.172,2.03 -3.298,3.165 -5.485,3.165 z m -3.158,28.373 c 0.996,0.576 2.084,0.849 3.157,0.849 2.187,0 4.313,-1.135 5.485,-3.165 1.747,-3.026 0.71,-6.895 -2.316,-8.642 l -97.012,-56.009903 c -1.957,-1.131 -4.369,-1.131 -6.326,0 l -21.0886,12.175903 c -3.026,1.747 -4.063,5.616 -2.316,8.642 1.747,3.027 5.618,4.063 8.642,2.316 l 17.9256,-10.349 z"
     fill="#00a47d"
     id="path1" />
  <path
     fill-rule="evenodd"
     clip-rule="evenodd"
     d="m 100.17508,148.17812 c 0.978,0.566 2.07,0.848 3.163,0.848 1.092,0 2.185,-0.282 3.163,-0.847 l 21.09,-12.176 c 3.026,-1.747 4.063,-5.617 2.316,-8.643 -1.746,-3.026 -5.616,-4.061 -8.642,-2.316 l -17.927,10.35 L 9.4905696,81.211317 c -3.025,-1.748 -6.895,-0.71 -8.64200005,2.315 -1.746995,3.026 -0.710001,6.896 2.31600005,8.643 z m 3.163,30.07 c -1.093,0 -2.185,-0.282 -3.163,-0.848 l -97.0105104,-56.01 c -3.02600105,-1.747 -4.06299505,-5.616 -2.31600005,-8.642 1.74700005,-3.026 5.61700005,-4.065 8.64200005,-2.316 l 93.8475104,54.184 43.234,-24.961 c 3.026,-1.747 6.897,-0.711 8.643,2.315 1.747,3.027 0.71,6.896 -2.316,8.643 l -46.398,26.787 c -0.978,0.566 -2.07,0.848 -3.163,0.848 z m -3.163,28.374 c 0.978,0.566 2.07,0.848 3.163,0.848 1.092,0 2.185,-0.282 3.163,-0.848 l 71.705,-41.398 c 3.027,-1.747 4.064,-5.616 2.317,-8.643 -1.748,-3.026 -5.617,-4.062 -8.643,-2.315 l -68.542,39.572 -93.8475104,-54.183 c -3.025,-1.748 -6.895,-0.71 -8.64200005,2.315 -1.746995,3.026 -0.710001,6.896 2.31600005,8.643 z m 0,29.223 c 0.978,0.566 2.07,0.848 3.163,0.848 1.093,0 2.185,-0.282 3.163,-0.848 l 97.013,-56.009 c 3.026,-1.747 4.062,-5.617 2.315,-8.643 -1.746,-3.026 -5.617,-4.063 -8.642,-2.315 l -93.849,54.183 -93.8475104,-54.183 c -3.025,-1.749 -6.895,-0.71 -8.64200005,2.315 -1.746995,3.026 -0.710001,6.896 2.31600005,8.643 z"
     fill="#09094e"
     id="path2" />
</svg>
