<svg width="100%" height="100%" viewBox="0 0 696 237" fill="none" xmlns="http://www.w3.org/2000/svg">
  <path
     fill-rule="evenodd"
     clip-rule="evenodd"
     d="M197.357 67.9461C198.354 68.5221 199.441 68.7951 200.514 68.7951C202.701 68.7951 204.827 67.6601 205.999 65.6301C207.746 62.6041 206.709 58.7351 203.683 56.9881L106.672 0.978133C104.715 -0.152867 102.303 -0.152867 100.346 0.978133L3.3345 56.9881C0.308501 58.7351 -0.728509 62.6041 1.01849 65.6301C2.76649 68.6561 6.63549 69.6931 9.66049 67.9461L103.509 13.7631L197.357 67.9461ZM197.358 97.1694C198.354 97.7454 199.442 98.0184 200.515 98.0184C202.702 98.0184 204.828 96.8834 206 94.8534C207.747 91.8274 206.71 87.9584 203.684 86.2114L106.673 30.2014C104.716 29.0714 102.304 29.0704 100.347 30.2014L28.6416 71.6004C25.6156 73.3474 24.5776 77.2164 26.3256 80.2424C28.0726 83.2684 31.9436 84.3054 34.9676 82.5584L103.51 42.9864L197.358 97.1694ZM200.515 127.241C199.442 127.241 198.354 126.968 197.358 126.392L103.51 72.2079L60.2757 97.1689C57.2507 98.9159 53.3797 97.8799 51.6327 94.8539C49.8857 91.8269 50.9227 87.9579 53.9497 86.2109L100.347 59.4239C102.304 58.2929 104.716 58.2929 106.673 59.4239L203.684 115.434C206.71 117.181 207.747 121.05 206 124.076C204.828 126.106 202.702 127.241 200.515 127.241ZM197.357 155.614C198.353 156.19 199.441 156.463 200.514 156.463C202.701 156.463 204.827 155.328 205.999 153.298C207.746 150.272 206.709 146.403 203.683 144.656L106.671 88.6461C104.714 87.5151 102.302 87.5151 100.345 88.6461L79.2564 100.822C76.2304 102.569 75.1934 106.438 76.9404 109.464C78.6874 112.491 82.5584 113.527 85.5824 111.78L103.508 101.431L197.357 155.614Z"
     fill="rgb(0, 164, 125)" />
  <path
     fill-rule="evenodd"
     clip-rule="evenodd"
     d="M100.345 148.308C101.323 148.874 102.415 149.156 103.508 149.156C104.6 149.156 105.693 148.874 106.671 148.309L127.761 136.133C130.787 134.386 131.824 130.516 130.077 127.49C128.331 124.464 124.461 123.429 121.435 125.174L103.508 135.524L9.66049 81.3412C6.63549 79.5932 2.76549 80.6312 1.01849 83.6562C-0.728505 86.6822 0.308489 90.5522 3.33449 92.2992L100.345 148.308ZM103.508 178.378C102.415 178.378 101.323 178.096 100.345 177.53L3.33449 121.52C0.308489 119.773 -0.728505 115.904 1.01849 112.878C2.76549 109.852 6.63549 108.813 9.66049 110.562L103.508 164.746L146.742 139.785C149.768 138.038 153.639 139.074 155.385 142.1C157.132 145.127 156.095 148.996 153.069 150.743L106.671 177.53C105.693 178.096 104.601 178.378 103.508 178.378ZM100.345 206.752C101.323 207.318 102.415 207.6 103.508 207.6C104.6 207.6 105.693 207.318 106.671 206.752L178.376 165.354C181.403 163.607 182.44 159.738 180.693 156.711C178.945 153.685 175.076 152.649 172.05 154.396L103.508 193.968L9.66049 139.785C6.63549 138.037 2.76549 139.075 1.01849 142.1C-0.728505 145.126 0.308489 148.996 3.33449 150.743L100.345 206.752ZM100.345 235.975C101.323 236.541 102.415 236.823 103.508 236.823C104.601 236.823 105.693 236.541 106.671 235.975L203.684 179.966C206.71 178.219 207.746 174.349 205.999 171.323C204.253 168.297 200.382 167.26 197.357 169.008L103.508 223.191L9.66049 169.008C6.63549 167.259 2.76549 168.298 1.01849 171.323C-0.728505 174.349 0.308489 178.219 3.33449 179.966L100.345 235.975Z"
     fill="rgb(255,255,255)" />
  <path
     fill-rule="evenodd"
     clip-rule="evenodd"
     d="M533.69 182.421C515.87 182.421 500.963 176.646 488.975 165.096C476.984 153.438 470.99 138.423 470.99 120.051C470.99 101.571 477.095 86.3914 489.305 74.5114C501.624 62.5234 516.53 56.5264 534.019 56.5264C544.798 56.5264 554.809 58.7544 564.049 63.2094C573.29 67.6644 580.714 73.6864 586.324 81.2764L568.504 99.4264C559.264 88.3174 548.263 82.7614 535.504 82.7614C525.383 82.7614 516.803 86.2834 509.765 93.3214C502.724 100.362 499.205 109.218 499.205 119.886C499.205 130.338 502.669 139.026 509.6 145.956C516.53 152.886 525.11 156.351 535.339 156.351C548.54 156.351 559.813 150.741 569.165 139.521L587.479 156.681C581.758 164.493 574.114 170.734 564.544 175.409C554.974 180.085 544.688 182.421 533.69 182.421ZM307.493 115.596H289.014V83.7514H308.649C313.488 83.7514 317.394 85.2644 320.364 88.2884C323.333 91.3154 324.819 95.0824 324.819 99.5914C324.819 104.211 323.277 108.034 320.199 111.058C317.118 114.085 312.882 115.596 307.493 115.596ZM308.484 58.6714H261.789V180.606H289.014V140.181H306.503C322.121 140.181 333.729 136.386 341.319 128.796C348.909 121.206 352.703 111.582 352.703 99.9214C352.703 88.1524 349.017 78.3634 341.649 70.5514C334.388 62.6314 323.333 58.6714 308.484 58.6714ZM408.636 93.4864L421.671 132.096H395.437L408.636 93.4864ZM437.016 180.606H465.396L420.681 58.6714H396.921L351.217 180.606H379.597L388.011 156.021H428.931L437.016 180.606ZM634.12 84.9059V180.606H661.51V84.9059H695.829V58.6709H599.635V84.9059H634.12Z"
     fill="rgb(255,255,255)" />
</svg>
